<svg width="827" height="99" viewBox="0 0 827 99" fill="none" xmlns="http://www.w3.org/2000/svg">
<path d="M54.0839 62.04C55.8319 65.004 57.3139 67.208 58.5299 68.652C59.7459 70.096 61.1519 71.16 62.7479 71.844C64.4199 72.528 66.6619 72.946 69.4739 73.098C69.4739 75.302 69.3219 76.936 69.0179 78C61.2659 78 55.2999 78.342 51.1199 79.026C48.2319 74.39 45.6859 69.906 43.4819 65.574L42.1139 63.066C39.7579 58.81 37.5919 55.276 35.6159 52.464C33.7159 49.576 31.1699 46.422 27.9779 43.002L24.4439 43.116C23.3039 43.116 21.8219 43.04 19.9979 42.888V63.522C19.9979 67.322 20.4919 69.906 21.4799 71.274C22.5439 72.566 24.5579 73.288 27.5219 73.44C27.9019 74.58 28.0919 76.214 28.0919 78.342C24.8239 78.114 20.3019 78 14.5259 78C8.82591 78 4.26591 78.114 0.845914 78.342C0.845914 76.29 1.03591 74.656 1.41591 73.44C4.53191 73.288 6.62191 72.566 7.68591 71.274C8.74991 69.906 9.28192 67.322 9.28192 63.522V15.414C9.28192 11.614 8.71191 9.03 7.57191 7.662C6.50791 6.218 4.45591 5.496 1.41591 5.496C1.03591 4.28 0.845914 2.684 0.845914 0.707996C3.88591 0.859994 8.44591 0.935993 14.5259 0.935993C18.7059 0.935993 21.8599 0.897994 23.9879 0.821995L33.5639 0.707996C41.7719 0.707996 47.9659 2.494 52.1459 6.066C56.3259 9.562 58.4159 14.16 58.4159 19.86C58.4159 24.876 56.7059 29.208 53.2859 32.856C49.9419 36.504 45.2679 39.088 39.2639 40.608C41.9239 43.42 44.1659 46.194 45.9899 48.93C47.8139 51.59 50.5119 55.96 54.0839 62.04ZM19.9979 37.644C21.8219 37.872 23.4939 37.986 25.0139 37.986C31.6259 37.986 36.9839 36.58 41.0879 33.768C45.1919 30.88 47.2439 26.624 47.2439 21C47.2439 16.212 45.7239 12.488 42.6839 9.82799C39.7199 7.092 34.9699 5.724 28.4339 5.724C25.6979 5.724 22.8859 6.028 19.9979 6.63599V37.644ZM127.568 61.812C129.62 62.192 131.292 63.028 132.584 64.32C131.216 67.892 130.19 72.49 129.506 78.114L107.504 78C96.5596 78 87.7436 78.076 81.0556 78.228C81.0556 75.872 81.2456 74.162 81.6256 73.098C83.5256 72.946 84.9316 72.642 85.8436 72.186C86.8316 71.73 87.5156 70.894 87.8956 69.678C88.2756 68.462 88.4656 66.638 88.4656 64.206V34.224C88.4656 32.02 88.2376 30.348 87.7816 29.208C87.4016 28.068 86.7176 27.27 85.7296 26.814C84.8176 26.358 83.4496 26.054 81.6256 25.902C81.2456 24.762 81.0556 23.052 81.0556 20.772C86.5276 20.924 92.4936 21 98.9536 21C112.938 21 122.286 20.924 126.998 20.772C127.834 27.916 128.556 32.628 129.164 34.908C127.872 35.744 126.162 36.162 124.034 36.162C123.73 32.97 122.4 30.462 120.044 28.638C117.764 26.814 113.698 25.902 107.846 25.902H98.9536V46.878H104.654C108.682 46.878 111.456 46.422 112.976 45.51C114.572 44.598 115.408 42.926 115.484 40.494C117.156 39.962 118.904 39.696 120.728 39.696C120.576 41.596 120.5 44.788 120.5 49.272C120.5 54.136 120.576 57.442 120.728 59.19C118.676 59.19 117.004 58.962 115.712 58.506C115.484 55.998 114.572 54.288 112.976 53.376C111.456 52.464 108.682 52.008 104.654 52.008H98.9536V63.978C98.9536 66.41 99.1816 68.272 99.6376 69.564C100.17 70.78 101.044 71.654 102.26 72.186C103.552 72.642 105.452 72.87 107.96 72.87H108.644C113.052 72.87 116.434 72.49 118.79 71.73C121.222 70.97 123.008 69.868 124.148 68.424C125.364 66.904 126.504 64.7 127.568 61.812ZM206.326 73.098C206.706 74.238 206.896 75.948 206.896 78.228C203.856 78.076 199.942 78 195.154 78C190.138 78 186.11 78.076 183.07 78.228C183.07 75.872 183.298 74.162 183.754 73.098C185.502 72.87 186.718 72.566 187.402 72.186C188.162 71.73 188.542 71.084 188.542 70.248C188.542 69.564 188.162 68.386 187.402 66.714L185.122 61.812C174.178 61.812 165.552 62.002 159.244 62.382L157.99 65.346C157.23 67.094 156.85 68.462 156.85 69.45C156.85 71.578 158.408 72.794 161.524 73.098C161.98 74.466 162.208 76.176 162.208 78.228C159.32 78.076 156.166 78 152.746 78C149.782 78 147.084 78.076 144.652 78.228C144.652 76.404 144.88 74.694 145.336 73.098C147.008 72.794 148.3 72.11 149.212 71.046C150.124 69.906 151.34 67.664 152.86 64.32L172.468 20.886C173.912 20.582 175.432 20.43 177.028 20.43L198.004 63.978C199.676 67.474 201.082 69.83 202.222 71.046C203.438 72.262 204.806 72.946 206.326 73.098ZM182.842 57.138L176.002 42.774C174.026 38.746 172.658 35.554 171.898 33.198C171.29 35.098 170.53 36.998 169.618 38.898C168.782 40.722 168.25 41.862 168.022 42.318L161.524 57.138H182.842ZM271.901 24.648C271.141 27.536 270.761 31.868 270.761 37.644C269.317 38.328 267.417 38.67 265.061 38.67C264.833 33.73 263.465 30.272 260.957 28.296C258.525 26.244 254.991 25.218 250.355 25.218C242.755 25.218 237.055 27.308 233.255 31.488C229.455 35.668 227.555 40.798 227.555 46.878C227.555 51.666 228.543 55.998 230.519 59.874C232.571 63.674 235.459 66.676 239.183 68.88C242.983 71.084 247.467 72.186 252.635 72.186C255.751 72.186 258.943 71.844 262.211 71.16C265.479 70.4 268.481 69.336 271.217 67.968C271.673 68.348 272.091 68.918 272.471 69.678C272.851 70.362 273.079 71.008 273.155 71.616C268.899 74.048 264.871 75.872 261.071 77.088C257.271 78.228 252.977 78.798 248.189 78.798C241.957 78.798 236.409 77.544 231.545 75.036C226.681 72.528 222.881 69.032 220.145 64.548C217.409 60.064 216.041 54.934 216.041 49.158C216.041 43.002 217.599 37.758 220.715 33.426C223.831 29.018 227.935 25.712 233.027 23.508C238.195 21.304 243.743 20.202 249.671 20.202C253.699 20.202 257.461 20.582 260.957 21.342C264.453 22.026 268.101 23.128 271.901 24.648ZM340.412 20.772C340.184 24.876 340.45 29.816 341.21 35.592C339.614 36.276 337.752 36.618 335.624 36.618C335.472 32.97 334.484 30.272 332.66 28.524C330.912 26.776 328.138 25.902 324.338 25.902H319.322V65.004C319.322 67.36 319.512 69.108 319.892 70.248C320.348 71.312 321.108 72.072 322.172 72.528C323.312 72.984 325.022 73.288 327.302 73.44C327.682 74.352 327.872 75.948 327.872 78.228C322.248 78.076 317.65 78 314.078 78C309.67 78 304.958 78.076 299.942 78.228C299.942 75.948 300.132 74.352 300.512 73.44C302.792 73.288 304.502 72.984 305.642 72.528C306.858 72.072 307.694 71.274 308.15 70.134C308.606 68.994 308.834 67.284 308.834 65.004V25.902H304.16C301.12 25.902 298.764 26.32 297.092 27.156C295.496 27.916 294.318 29.018 293.558 30.462C292.798 31.906 292.152 33.958 291.62 36.618C289.188 36.618 287.402 36.276 286.262 35.592C287.402 30.424 287.972 25.484 287.972 20.772C291.924 20.924 300.626 21 314.078 21C327.758 21 336.536 20.924 340.412 20.772ZM405.67 0.707996C414.562 0.707996 421.098 2.798 425.278 6.978C429.458 11.082 431.548 16.364 431.548 22.824C431.548 27.384 430.56 31.678 428.584 35.706C426.608 39.658 423.644 42.888 419.692 45.396C415.816 47.904 411.142 49.158 405.67 49.158C402.478 49.158 399.818 48.74 397.69 47.904C397.538 46.992 397.462 46.27 397.462 45.738C397.462 44.826 397.576 43.99 397.804 43.23C399.704 43.686 401.718 43.914 403.846 43.914C414.562 43.914 419.92 37.986 419.92 26.13C419.92 19.746 418.362 14.768 415.246 11.196C412.13 7.548 407.266 5.724 400.654 5.724C398.982 5.724 397.044 5.952 394.84 6.408V61.242C394.84 64.51 395.182 67.018 395.866 68.766C396.55 70.438 397.576 71.616 398.944 72.3C400.388 72.908 402.402 73.288 404.986 73.44C405.366 74.504 405.556 76.138 405.556 78.342C402.06 78.114 397.272 78 391.192 78C383.82 78 378.652 78.114 375.688 78.342C375.688 76.138 375.878 74.504 376.258 73.44C379.298 73.288 381.35 72.566 382.414 71.274C383.554 69.906 384.124 67.322 384.124 63.522V15.414C384.124 11.614 383.554 9.068 382.414 7.77599C381.35 6.408 379.298 5.648 376.258 5.496C375.878 4.432 375.688 2.798 375.688 0.593998C379.64 0.821995 384.808 0.935993 391.192 0.935993L405.67 0.707996ZM490.948 64.662C493 67.702 495.09 69.868 497.218 71.16C499.422 72.376 502.12 73.06 505.312 73.212C505.312 75.416 505.16 77.012 504.856 78C498.396 78 492.924 78.266 488.44 78.798C487.908 77.886 486.882 76.29 485.362 74.01L480.232 65.688C477.42 60.976 473.696 57.138 469.06 54.174L465.412 54.288L462.106 54.174V64.548C462.106 67.056 462.296 68.918 462.676 70.134C463.056 71.35 463.664 72.186 464.5 72.642C465.412 73.098 466.78 73.364 468.604 73.44C468.908 74.352 469.06 75.948 469.06 78.228C466.248 78.076 462.106 78 456.634 78C452.606 78 448.464 78.076 444.208 78.228C444.208 76.1 444.398 74.504 444.778 73.44C446.678 73.288 448.084 72.984 448.996 72.528C449.984 72.072 450.668 71.274 451.048 70.134C451.428 68.994 451.618 67.284 451.618 65.004V34.11C451.618 30.842 451.162 28.676 450.25 27.612C449.338 26.548 447.514 25.94 444.778 25.788C444.398 24.648 444.208 22.976 444.208 20.772C447.096 20.924 451.276 21 456.748 21L464.956 20.886C468.908 20.734 471.91 20.658 473.962 20.658C481.258 20.658 486.768 22.064 490.492 24.876C494.216 27.688 496.078 31.298 496.078 35.706C496.078 40.114 494.672 43.762 491.86 46.65C489.048 49.462 485.134 51.362 480.118 52.35C482.018 53.49 483.576 54.82 484.792 56.34C486.084 57.784 488.136 60.558 490.948 64.662ZM466.438 48.588C471.91 48.588 476.394 47.638 479.89 45.738C483.386 43.762 485.134 40.912 485.134 37.188C485.134 29.436 479.814 25.56 469.174 25.56C466.742 25.56 464.386 25.788 462.106 26.244V48.246C463.702 48.474 465.146 48.588 466.438 48.588ZM548.91 79.026C542.374 79.026 536.598 77.81 531.582 75.378C526.566 72.946 522.652 69.526 519.84 65.118C517.104 60.71 515.736 55.58 515.736 49.728C515.736 43.952 517.104 38.822 519.84 34.338C522.652 29.854 526.566 26.396 531.582 23.964C536.674 21.456 542.526 20.202 549.138 20.202C555.674 20.202 561.45 21.418 566.466 23.85C571.482 26.282 575.358 29.74 578.094 34.224C580.906 38.632 582.312 43.724 582.312 49.5C582.312 55.352 580.906 60.52 578.094 65.004C575.358 69.412 571.444 72.87 566.352 75.378C561.336 77.81 555.522 79.026 548.91 79.026ZM550.506 73.782C556.662 73.782 561.526 71.73 565.098 67.626C568.746 63.522 570.57 58.05 570.57 51.21C570.57 46.27 569.582 41.862 567.606 37.986C565.63 34.034 562.856 30.956 559.284 28.752C555.788 26.548 551.836 25.446 547.428 25.446C541.272 25.446 536.408 27.536 532.836 31.716C529.264 35.82 527.478 41.254 527.478 48.018C527.478 53.11 528.466 57.632 530.442 61.584C532.418 65.46 535.154 68.462 538.65 70.59C542.146 72.718 546.098 73.782 550.506 73.782ZM613.358 67.056C613.358 72.832 612.864 77.544 611.876 81.192C610.964 84.916 609.026 88.222 606.062 91.11C603.174 93.998 598.88 96.62 593.18 98.976C592.116 98.14 591.47 96.734 591.242 94.758C595.346 92.174 598.31 89.362 600.134 86.322C601.958 83.358 602.87 79.216 602.87 73.896V34.338C602.87 32.058 602.642 30.348 602.186 29.208C601.806 28.068 601.122 27.27 600.134 26.814C599.222 26.358 597.816 26.054 595.916 25.902C595.612 24.686 595.46 22.976 595.46 20.772C599.412 20.924 603.63 21 608.114 21C613.054 21 617.272 20.924 620.768 20.772C620.768 22.976 620.578 24.686 620.198 25.902C617.538 26.054 615.714 26.738 614.726 27.954C613.814 29.094 613.358 31.222 613.358 34.338V67.056ZM682.872 61.812C684.924 62.192 686.596 63.028 687.888 64.32C686.52 67.892 685.494 72.49 684.81 78.114L662.808 78C651.864 78 643.048 78.076 636.36 78.228C636.36 75.872 636.55 74.162 636.93 73.098C638.83 72.946 640.236 72.642 641.148 72.186C642.136 71.73 642.82 70.894 643.2 69.678C643.58 68.462 643.77 66.638 643.77 64.206V34.224C643.77 32.02 643.542 30.348 643.086 29.208C642.706 28.068 642.022 27.27 641.034 26.814C640.122 26.358 638.754 26.054 636.93 25.902C636.55 24.762 636.36 23.052 636.36 20.772C641.832 20.924 647.798 21 654.258 21C668.242 21 677.59 20.924 682.302 20.772C683.138 27.916 683.86 32.628 684.468 34.908C683.176 35.744 681.466 36.162 679.338 36.162C679.034 32.97 677.704 30.462 675.348 28.638C673.068 26.814 669.002 25.902 663.15 25.902H654.258V46.878H659.958C663.986 46.878 666.76 46.422 668.28 45.51C669.876 44.598 670.712 42.926 670.788 40.494C672.46 39.962 674.208 39.696 676.032 39.696C675.88 41.596 675.804 44.788 675.804 49.272C675.804 54.136 675.88 57.442 676.032 59.19C673.98 59.19 672.308 58.962 671.016 58.506C670.788 55.998 669.876 54.288 668.28 53.376C666.76 52.464 663.986 52.008 659.958 52.008H654.258V63.978C654.258 66.41 654.486 68.272 654.942 69.564C655.474 70.78 656.348 71.654 657.564 72.186C658.856 72.642 660.756 72.87 663.264 72.87H663.948C668.356 72.87 671.738 72.49 674.094 71.73C676.526 70.97 678.312 69.868 679.452 68.424C680.668 66.904 681.808 64.7 682.872 61.812ZM756.957 24.648C756.197 27.536 755.817 31.868 755.817 37.644C754.373 38.328 752.473 38.67 750.117 38.67C749.889 33.73 748.521 30.272 746.013 28.296C743.581 26.244 740.047 25.218 735.411 25.218C727.811 25.218 722.111 27.308 718.311 31.488C714.511 35.668 712.611 40.798 712.611 46.878C712.611 51.666 713.599 55.998 715.575 59.874C717.627 63.674 720.515 66.676 724.239 68.88C728.039 71.084 732.523 72.186 737.691 72.186C740.807 72.186 743.999 71.844 747.267 71.16C750.535 70.4 753.537 69.336 756.273 67.968C756.729 68.348 757.147 68.918 757.527 69.678C757.907 70.362 758.135 71.008 758.211 71.616C753.955 74.048 749.927 75.872 746.127 77.088C742.327 78.228 738.033 78.798 733.245 78.798C727.013 78.798 721.465 77.544 716.601 75.036C711.737 72.528 707.937 69.032 705.201 64.548C702.465 60.064 701.097 54.934 701.097 49.158C701.097 43.002 702.655 37.758 705.771 33.426C708.887 29.018 712.991 25.712 718.083 23.508C723.251 21.304 728.799 20.202 734.727 20.202C738.755 20.202 742.517 20.582 746.013 21.342C749.509 22.026 753.157 23.128 756.957 24.648ZM825.468 20.772C825.24 24.876 825.506 29.816 826.266 35.592C824.67 36.276 822.808 36.618 820.68 36.618C820.528 32.97 819.54 30.272 817.716 28.524C815.968 26.776 813.194 25.902 809.394 25.902H804.378V65.004C804.378 67.36 804.568 69.108 804.948 70.248C805.404 71.312 806.164 72.072 807.228 72.528C808.368 72.984 810.078 73.288 812.358 73.44C812.738 74.352 812.928 75.948 812.928 78.228C807.304 78.076 802.706 78 799.134 78C794.726 78 790.014 78.076 784.998 78.228C784.998 75.948 785.188 74.352 785.568 73.44C787.848 73.288 789.558 72.984 790.698 72.528C791.914 72.072 792.75 71.274 793.206 70.134C793.662 68.994 793.89 67.284 793.89 65.004V25.902H789.216C786.176 25.902 783.82 26.32 782.148 27.156C780.552 27.916 779.374 29.018 778.614 30.462C777.854 31.906 777.208 33.958 776.676 36.618C774.244 36.618 772.458 36.276 771.318 35.592C772.458 30.424 773.028 25.484 773.028 20.772C776.98 20.924 785.682 21 799.134 21C812.814 21 821.592 20.924 825.468 20.772Z" fill="black"/>
</svg>
